# xmcd
#
# Track frame offsets:
#	182
#	19555
#	39105
#	52680
#	71055
#	81830
#	95007
#	112007
#	129430
#	143905
#	159255
#	176130
#
# Disc length: 2494 seconds
#
# Revision: 1
# Processed by: cddbd v1.5.2PL0 Copyright (c) Steve Scherf et al.
# Submitted via: audiograbber 1.83.01
#
DISCID=9509bc0c
DTITLE=Various Artist - Sweet dreamer
DYEAR=1988
DGENRE=Oldies (POP)
TTITLE0=Bonnie Bianco - My first love
TTITLE1=Bogart - Call me up
TTITLE2=Gilbert O´Sullivan - Gilbert O´Sullivan
TTITLE3=Procol Harum - A whiter shade of pale
TTITLE4=The Overlanders - Michelle
TTITLE5=Donovan - Catch the wind
TTITLE6=Stephane Severac - Hold on
TTITLE7=Bonnie Bianco and Pierre Cosso - Stay
TTITLE8=Outsiders - Tried so hard to find your love
TTITLE9=Sweet sensation - Sad sweet dreamers
TTITLE10=Chris Winters - There´s a child in the street
TTITLE11=Richie Valens - Donna
EXTD=
EXTT0=
EXTT1=
EXTT2=
EXTT3=
EXTT4=
EXTT5=
EXTT6=
EXTT7=
EXTT8=
EXTT9=
EXTT10=
EXTT11=
PLAYORDER=
